<?xml version="1.0" encoding="UTF-8"?>
<!DOCTYPE svg PUBLIC "-//W3C//DTD SVG 1.1//EN" "http://www.w3.org/Graphics/SVG/1.1/DTD/svg11.dtd">
<svg xmlns="http://www.w3.org/2000/svg" version="1.1" width="606px" height="606px" style="shape-rendering:geometricPrecision; text-rendering:geometricPrecision; image-rendering:optimizeQuality; fill-rule:evenodd; clip-rule:evenodd" xmlns:xlink="http://www.w3.org/1999/xlink">
<g><path style="opacity:1" fill="#010000" d="M -0.5,-0.5 C 201.5,-0.5 403.5,-0.5 605.5,-0.5C 605.5,201.5 605.5,403.5 605.5,605.5C 403.5,605.5 201.5,605.5 -0.5,605.5C -0.5,403.5 -0.5,201.5 -0.5,-0.5 Z"/></g>
<g><path style="opacity:1" fill="#d5613b" d="M 360.5,133.5 C 365.493,136.283 370.66,138.95 376,141.5C 376.432,142.6 375.932,143.267 374.5,143.5C 372.423,142.063 370.09,141.396 367.5,141.5C 364.659,141.44 361.993,140.774 359.5,139.5C 359.389,138.883 359.056,138.383 358.5,138C 318.815,137.196 279.148,137.363 239.5,138.5C 240.263,137.732 241.263,137.232 242.5,137C 281.504,136.833 320.504,136.333 359.5,135.5C 319.506,134.5 279.506,134.167 239.5,134.5C 239.5,134.167 239.5,133.833 239.5,133.5C 279.863,132.172 320.196,132.172 360.5,133.5 Z"/></g>
<g><path style="opacity:1" fill="#f0592c" d="M 239.5,134.5 C 279.506,134.167 319.506,134.5 359.5,135.5C 320.504,136.333 281.504,136.833 242.5,137C 241.263,137.232 240.263,137.732 239.5,138.5C 239.5,138.833 239.5,139.167 239.5,139.5C 235.519,138.996 232.519,140.329 230.5,143.5C 230.167,143.5 229.833,143.5 229.5,143.5C 225.689,144.063 223.023,146.063 221.5,149.5C 218.23,151.101 215.563,153.434 213.5,156.5C 212.369,154.926 212.202,153.259 213,151.5C 220.447,143.531 229.28,137.865 239.5,134.5 Z"/></g>
<g><path style="opacity:1" fill="#b7694d" d="M 359.5,139.5 C 319.505,138.179 279.505,138.179 239.5,139.5C 239.5,139.167 239.5,138.833 239.5,138.5C 279.148,137.363 318.815,137.196 358.5,138C 359.056,138.383 359.389,138.883 359.5,139.5 Z"/></g>
<g><path style="opacity:1" fill="#b55c40" d="M 239.5,139.5 C 236.686,141.07 233.686,142.403 230.5,143.5C 232.519,140.329 235.519,138.996 239.5,139.5 Z"/></g>
<g><path style="opacity:1" fill="#020000" d="M 359.5,139.5 C 361.993,140.774 364.659,141.44 367.5,141.5C 373.405,145.391 379.072,149.724 384.5,154.5C 385.719,158.046 387.719,161.046 390.5,163.5C 391.224,166.843 392.057,170.176 393,173.5C 393.5,187.829 393.667,202.163 393.5,216.5C 384.236,214.781 374.903,213.448 365.5,212.5C 365.666,203.827 365.5,195.16 365,186.5C 364.538,182.578 363.038,179.245 360.5,176.5C 358.634,172.993 355.634,170.993 351.5,170.5C 317.671,168.025 283.671,167.859 249.5,170C 248.473,170.513 247.473,171.013 246.5,171.5C 241.759,173.745 238.592,177.412 237,182.5C 236.175,192.342 236.342,202.009 237.5,211.5C 258.482,214.941 279.482,218.275 300.5,221.5C 305.107,222.554 309.773,223.221 314.5,223.5C 326.302,225.911 338.302,227.911 350.5,229.5C 350.833,229.5 351.167,229.5 351.5,229.5C 358.949,231.353 366.615,232.687 374.5,233.5C 375.167,233.5 375.833,233.5 376.5,233.5C 383.949,235.353 391.615,236.687 399.5,237.5C 399.833,237.5 400.167,237.5 400.5,237.5C 410.62,239.686 420.953,241.353 431.5,242.5C 432.167,210.833 432.833,179.167 433.5,147.5C 434.605,148.6 435.938,149.267 437.5,149.5C 438.585,151.587 440.251,152.92 442.5,153.5C 445.46,156.645 448.793,159.312 452.5,161.5C 453.585,163.587 455.251,164.92 457.5,165.5C 458.167,166.5 458.833,167.5 459.5,168.5C 459.667,235.167 459.5,301.834 459,368.5C 455.201,370.804 451.368,372.804 447.5,374.5C 442.167,376.167 436.833,377.833 431.5,379.5C 431.667,343.832 431.5,308.165 431,272.5C 429.989,271.663 428.822,271.33 427.5,271.5C 426.167,271.5 424.833,271.5 423.5,271.5C 415.732,269.53 407.732,268.197 399.5,267.5C 383.729,264.205 367.729,261.538 351.5,259.5C 343.712,257.688 335.712,256.354 327.5,255.5C 319.732,253.53 311.732,252.197 303.5,251.5C 279.734,246.864 255.734,242.864 231.5,239.5C 224.353,237.85 217.02,236.516 209.5,235.5C 209.167,213.157 209.5,190.823 210.5,168.5C 212.464,161.197 216.131,154.864 221.5,149.5C 224.563,147.975 227.23,145.975 229.5,143.5C 229.833,143.5 230.167,143.5 230.5,143.5C 233.686,142.403 236.686,141.07 239.5,139.5C 279.505,138.179 319.505,138.179 359.5,139.5 Z"/></g>
<g><path style="opacity:1" fill="#a6533b" d="M 229.5,143.5 C 227.23,145.975 224.563,147.975 221.5,149.5C 223.023,146.063 225.689,144.063 229.5,143.5 Z"/></g>
<g><path style="opacity:1" fill="#020000" d="M 175.5,146.5 C 176.167,183.167 176.833,219.833 177.5,256.5C 179.435,257.15 181.435,257.483 183.5,257.5C 207.454,261.715 231.454,265.715 255.5,269.5C 256.5,269.5 257.5,269.5 258.5,269.5C 265.276,271.354 272.276,272.688 279.5,273.5C 280.167,273.5 280.833,273.5 281.5,273.5C 304.635,277.912 327.969,281.912 351.5,285.5C 352.167,285.5 352.833,285.5 353.5,285.5C 360.631,287.246 367.965,288.579 375.5,289.5C 376.167,289.5 376.833,289.5 377.5,289.5C 384.658,291.099 391.991,292.432 399.5,293.5C 399.833,293.5 400.167,293.5 400.5,293.5C 400.5,310.5 400.5,327.5 400.5,344.5C 399.674,348.982 399.174,353.649 399,358.5C 397.253,361.21 396.253,364.21 396,367.5C 393.98,369.551 392.48,371.884 391.5,374.5C 388.369,377.129 385.369,379.962 382.5,383C 379.975,383.424 377.975,384.59 376.5,386.5C 371.323,388.294 365.99,389.46 360.5,390C 325.5,390.667 290.5,390.667 255.5,390C 245.709,389.129 237.042,385.629 229.5,379.5C 229.167,378.5 228.5,377.833 227.5,377.5C 225.164,374.158 222.831,370.825 220.5,367.5C 220.167,367.5 219.833,367.5 219.5,367.5C 219.115,363.675 218.115,360.009 216.5,356.5C 215.501,341.848 215.167,327.182 215.5,312.5C 224.767,314.267 234.101,315.6 243.5,316.5C 243.334,326.172 243.5,335.839 244,345.5C 244.232,346.737 244.732,347.737 245.5,348.5C 247.112,353.445 250.445,356.779 255.5,358.5C 272.153,359.833 289.153,360.5 306.5,360.5C 323.67,360.5 340.67,360.167 357.5,359.5C 361.542,358.149 364.875,355.815 367.5,352.5C 367.5,351.833 367.833,351.5 368.5,351.5C 370.311,349.615 371.478,347.281 372,344.5C 372.824,335.324 372.657,326.324 371.5,317.5C 362.186,316.037 352.853,314.704 343.5,313.5C 335.702,311.716 327.702,310.383 319.5,309.5C 303.691,306.476 287.691,303.809 271.5,301.5C 270.5,301.5 269.5,301.5 268.5,301.5C 249.339,297.902 230.006,294.569 210.5,291.5C 209.833,291.5 209.167,291.5 208.5,291.5C 201.022,289.809 193.355,288.475 185.5,287.5C 184.833,287.5 184.167,287.5 183.5,287.5C 181.735,286.539 179.735,286.205 177.5,286.5C 176.833,316.833 176.167,347.167 175.5,377.5C 167.833,371.5 160.167,365.5 152.5,359.5C 151.878,358.373 151.045,357.373 150,356.5C 149.171,291.763 149.337,227.096 150.5,162.5C 158.288,156.432 166.621,151.099 175.5,146.5 Z"/></g>
<g><path style="opacity:1" fill="#b65839" d="M 443.5,147.5 C 441.565,146.85 439.565,146.517 437.5,146.5C 437.5,147.5 437.5,148.5 437.5,149.5C 435.938,149.267 434.605,148.6 433.5,147.5C 433.44,146.957 433.107,146.624 432.5,146.5C 431.5,178.493 431.167,210.493 431.5,242.5C 420.953,241.353 410.62,239.686 400.5,237.5C 410.662,237.956 420.662,238.956 430.5,240.5C 430.5,208.833 430.5,177.167 430.5,145.5C 432.924,145.808 435.257,145.474 437.5,144.5C 437.376,143.893 437.043,143.56 436.5,143.5C 434.109,140.083 430.775,138.75 426.5,139.5C 427.659,137.623 429.326,137.123 431.5,138C 435.975,140.65 439.975,143.817 443.5,147.5 Z"/></g>
<g><path style="opacity:1" fill="#cd5b39" d="M 426.5,139.5 C 430.775,138.75 434.109,140.083 436.5,143.5C 434.516,142.844 432.516,142.178 430.5,141.5C 429.558,141.608 428.725,141.941 428,142.5C 428.161,173.85 427.328,204.85 425.5,235.5C 425.5,203.833 425.5,172.167 425.5,140.5C 425.5,139.833 425.833,139.5 426.5,139.5 Z"/></g>
<g><path style="opacity:1" fill="#e05b2f" d="M 443.5,147.5 C 444.916,149.916 446.916,151.916 449.5,153.5C 450.386,154.325 450.719,155.325 450.5,156.5C 447.447,156.428 444.781,155.428 442.5,153.5C 440.251,152.92 438.585,151.587 437.5,149.5C 437.5,148.5 437.5,147.5 437.5,146.5C 439.565,146.517 441.565,146.85 443.5,147.5 Z"/></g>
<g><path style="opacity:1" fill="#3d1d12" d="M 425.5,140.5 C 425.5,172.167 425.5,203.833 425.5,235.5C 424.209,235.737 423.209,235.404 422.5,234.5C 424.165,203.347 425.165,172.013 425.5,140.5 Z"/></g>
<g><path style="opacity:1" fill="#bf5735" d="M 360.5,133.5 C 378.495,137.499 390.495,148.165 396.5,165.5C 394.703,162.668 392.703,160.001 390.5,157.5C 389.769,159.401 389.769,161.401 390.5,163.5C 387.719,161.046 385.719,158.046 384.5,154.5C 379.072,149.724 373.405,145.391 367.5,141.5C 370.09,141.396 372.423,142.063 374.5,143.5C 375.932,143.267 376.432,142.6 376,141.5C 370.66,138.95 365.493,136.283 360.5,133.5 Z"/></g>
<g><path style="opacity:1" fill="#ed5a2e" d="M 384.5,154.5 C 383.419,152.236 382.085,150.069 380.5,148C 385.146,147.956 388.146,150.29 389.5,155C 387.803,155.384 386.137,155.218 384.5,154.5 Z"/></g>
<g><path style="opacity:1" fill="#ca5e3b" d="M 175.5,139.5 C 174.043,141.785 172.043,143.618 169.5,145C 172.14,145.839 174.473,145.339 176.5,143.5C 177.298,143.957 177.631,144.624 177.5,145.5C 176.508,145.328 175.842,145.662 175.5,146.5C 166.621,151.099 158.288,156.432 150.5,162.5C 148.504,226.491 147.837,290.825 148.5,355.5C 147.335,291.001 147.168,226.335 148,161.5C 149.214,159.951 150.714,158.785 152.5,158C 151.436,156.489 150.103,156.323 148.5,157.5C 148.833,156.833 149.167,156.167 149.5,155.5C 156.262,151.255 162.929,146.755 169.5,142C 171.407,140.878 173.407,140.045 175.5,139.5 Z"/></g>
<g><path style="opacity:1" fill="#bd5939" d="M 443.5,147.5 C 449.102,150.771 454.102,154.771 458.5,159.5C 456.302,158.986 454.302,157.986 452.5,156.5C 451.334,158.167 451.334,159.834 452.5,161.5C 448.793,159.312 445.46,156.645 442.5,153.5C 444.781,155.428 447.447,156.428 450.5,156.5C 450.719,155.325 450.386,154.325 449.5,153.5C 446.916,151.916 444.916,149.916 443.5,147.5 Z"/></g>
<g><path style="opacity:1" fill="#bf5e41" d="M 177.5,146.5 C 178.498,182.663 178.832,218.996 178.5,255.5C 180.216,255.629 181.883,255.962 183.5,256.5C 183.5,256.833 183.5,257.167 183.5,257.5C 181.435,257.483 179.435,257.15 177.5,256.5C 177.5,219.833 177.5,183.167 177.5,146.5 Z"/></g>
<g><path style="opacity:1" fill="#e65c32" d="M 175.5,139.5 C 177.591,139.318 179.591,139.652 181.5,140.5C 182.167,177.664 182.833,214.664 183.5,251.5C 184.167,251.5 184.833,251.5 185.5,251.5C 188.083,253.568 191.083,254.901 194.5,255.5C 190.893,256.489 187.226,256.823 183.5,256.5C 181.883,255.962 180.216,255.629 178.5,255.5C 178.832,218.996 178.498,182.663 177.5,146.5C 177.5,146.167 177.5,145.833 177.5,145.5C 177.631,144.624 177.298,143.957 176.5,143.5C 174.473,145.339 172.14,145.839 169.5,145C 172.043,143.618 174.043,141.785 175.5,139.5 Z"/></g>
<g><path style="opacity:1" fill="#47261a" d="M 433.5,147.5 C 432.833,179.167 432.167,210.833 431.5,242.5C 431.167,210.493 431.5,178.493 432.5,146.5C 433.107,146.624 433.44,146.957 433.5,147.5 Z"/></g>
<g><path style="opacity:1" fill="#4c2717" d="M 175.5,146.5 C 175.842,145.662 176.508,145.328 177.5,145.5C 177.5,145.833 177.5,146.167 177.5,146.5C 177.5,183.167 177.5,219.833 177.5,256.5C 176.833,219.833 176.167,183.167 175.5,146.5 Z"/></g>
<g><path style="opacity:1" fill="#ae5438" d="M 183.5,251.5 C 182.833,214.664 182.167,177.664 181.5,140.5C 179.591,139.652 177.591,139.318 175.5,139.5C 177.799,136.998 180.299,136.998 183,139.5C 183.5,176.832 183.667,214.165 183.5,251.5 Z"/></g>
<g><path style="opacity:1" fill="#964e39" d="M 452.5,161.5 C 454.749,162.08 456.415,163.413 457.5,165.5C 455.251,164.92 453.585,163.587 452.5,161.5 Z"/></g>
<g><path style="opacity:1" fill="#b35436" d="M 239.5,133.5 C 239.5,133.833 239.5,134.167 239.5,134.5C 229.28,137.865 220.447,143.531 213,151.5C 212.202,153.259 212.369,154.926 213.5,156.5C 215.563,153.434 218.23,151.101 221.5,149.5C 216.131,154.864 212.464,161.197 210.5,168.5C 209.5,190.823 209.167,213.157 209.5,235.5C 208.683,233.031 208.183,230.365 208,227.5C 207.46,206.484 207.46,185.484 208,164.5C 206.084,167.898 205.084,171.565 205,175.5C 204.5,196.831 204.333,218.164 204.5,239.5C 215.584,241.526 226.75,243.193 238,244.5C 240.167,244.167 242.333,243.833 244.5,243.5C 239.974,242.407 235.641,241.073 231.5,239.5C 255.734,242.864 279.734,246.864 303.5,251.5C 289.098,249.92 274.764,247.754 260.5,245C 255.5,244.333 250.5,244.333 245.5,245C 246.381,245.708 247.047,246.542 247.5,247.5C 233.432,245.878 219.432,243.711 205.5,241C 204.333,240.5 203.5,239.667 203,238.5C 202.333,216.167 202.333,193.833 203,171.5C 207.448,151.55 219.615,138.883 239.5,133.5 Z"/></g>
<g><path style="opacity:1" fill="#bc5c3d" d="M 351.5,170.5 C 318.165,170.333 284.832,170.5 251.5,171C 245.189,173.36 245.189,174.86 251.5,175.5C 248.833,177.5 246.5,179.833 244.5,182.5C 243.833,182.833 243.167,183.167 242.5,183.5C 243.094,181.145 244.094,178.978 245.5,177C 245.164,175.97 244.497,175.47 243.5,175.5C 244.5,174.167 245.5,172.833 246.5,171.5C 247.473,171.013 248.473,170.513 249.5,170C 283.671,167.859 317.671,168.025 351.5,170.5 Z"/></g>
<g><path style="opacity:1" fill="#63321e" d="M 150.5,162.5 C 149.337,227.096 149.171,291.763 150,356.5C 151.045,357.373 151.878,358.373 152.5,359.5C 150.167,359.167 148.833,357.833 148.5,355.5C 147.837,290.825 148.504,226.491 150.5,162.5 Z"/></g>
<g><path style="opacity:1" fill="#e95b2f" d="M 396.5,165.5 C 398.069,175.73 398.736,186.063 398.5,196.5C 398.5,204.674 398.166,212.674 397.5,220.5C 385.764,219.71 374.097,218.377 362.5,216.5C 361.808,215.975 361.308,215.308 361,214.5C 360.667,205.5 360.333,196.5 360,187.5C 359.768,186.263 359.268,185.263 358.5,184.5C 357.692,182.78 356.692,181.113 355.5,179.5C 355.67,178.178 355.337,177.011 354.5,176C 351.607,174.851 348.607,174.351 345.5,174.5C 314.669,173.336 283.669,173.169 252.5,174C 251.944,174.383 251.611,174.883 251.5,175.5C 245.189,174.86 245.189,173.36 251.5,171C 284.832,170.5 318.165,170.333 351.5,170.5C 354.291,172.735 357.291,174.735 360.5,176.5C 363.134,187.884 364.3,199.55 364,211.5C 364.383,212.056 364.883,212.389 365.5,212.5C 368.269,213.972 371.269,215.139 374.5,216C 379.852,216.322 385.186,216.822 390.5,217.5C 391.726,217.48 392.726,217.147 393.5,216.5C 393.667,202.163 393.5,187.829 393,173.5C 392.057,170.176 391.224,166.843 390.5,163.5C 389.769,161.401 389.769,159.401 390.5,157.5C 392.703,160.001 394.703,162.668 396.5,165.5 Z"/></g>
<g><path style="opacity:1" fill="#ae5841" d="M 351.5,170.5 C 355.634,170.993 358.634,172.993 360.5,176.5C 357.291,174.735 354.291,172.735 351.5,170.5 Z"/></g>
<g><path style="opacity:1" fill="#d4623d" d="M 345.5,174.5 C 314.662,174.169 283.995,174.502 253.5,175.5C 252.833,175.5 252.167,175.5 251.5,175.5C 251.611,174.883 251.944,174.383 252.5,174C 283.669,173.169 314.669,173.336 345.5,174.5 Z"/></g>
<g><path style="opacity:1" fill="#d8603a" d="M 144.5,162.5 C 144.167,227.837 144.5,293.17 145.5,358.5C 146.844,360.529 148.177,362.529 149.5,364.5C 146.911,363.581 144.911,361.914 143.5,359.5C 143.168,293.665 143.501,227.998 144.5,162.5 Z"/></g>
<g><path style="opacity:1" fill="#a85a40" d="M 253.5,175.5 C 283.995,174.502 314.662,174.169 345.5,174.5C 348.607,174.351 351.607,174.851 354.5,176C 355.337,177.011 355.67,178.178 355.5,179.5C 353.862,178.343 352.196,177.176 350.5,176C 318.168,175.5 285.835,175.333 253.5,175.5 Z"/></g>
<g><path style="opacity:1" fill="#82402a" d="M 149.5,155.5 C 149.167,156.167 148.833,156.833 148.5,157.5C 146.413,158.585 145.08,160.251 144.5,162.5C 143.501,227.998 143.168,293.665 143.5,359.5C 142.335,293.335 142.168,227.001 143,160.5C 144.753,158.242 146.919,156.575 149.5,155.5 Z"/></g>
<g><path style="opacity:1" fill="#ed592e" d="M 148.5,355.5 C 148.833,357.833 150.167,359.167 152.5,359.5C 153.038,361.117 153.371,362.784 153.5,364.5C 152.167,364.5 150.833,364.5 149.5,364.5C 148.177,362.529 146.844,360.529 145.5,358.5C 144.5,293.17 144.167,227.837 144.5,162.5C 145.08,160.251 146.413,158.585 148.5,157.5C 150.103,156.323 151.436,156.489 152.5,158C 150.714,158.785 149.214,159.951 148,161.5C 147.168,226.335 147.335,291.001 148.5,355.5 Z"/></g>
<g><path style="opacity:1" fill="#c56847" d="M 457.5,165.5 C 459.017,165.511 460.184,166.177 461,167.5C 461.832,234.335 461.665,301.001 460.5,367.5C 460.832,300.998 460.499,234.665 459.5,168.5C 458.833,167.5 458.167,166.5 457.5,165.5 Z"/></g>
<g><path style="opacity:1" fill="#a85236" d="M 396.5,165.5 C 397.793,166.842 398.626,168.509 399,170.5C 399.667,187.5 399.667,204.5 399,221.5C 395.066,222.821 391.233,222.821 387.5,221.5C 391.042,221.813 394.375,221.479 397.5,220.5C 398.166,212.674 398.5,204.674 398.5,196.5C 398.736,186.063 398.069,175.73 396.5,165.5 Z"/></g>
<g><path style="opacity:1" fill="#f0592a" d="M 119.5,347.5 C 118.826,345.976 117.826,344.642 116.5,343.5C 117,343.167 117.5,342.833 118,342.5C 120.482,344.531 123.148,344.865 126,343.5C 126.167,315.5 126.333,287.5 126.5,259.5C 126.5,231.159 125.833,203.159 124.5,175.5C 124.167,175.5 123.833,175.5 123.5,175.5C 119.794,176.29 116.128,177.29 112.5,178.5C 111.833,178.167 111.167,177.833 110.5,177.5C 111.193,176.482 111.859,175.482 112.5,174.5C 116.893,173.477 121.226,172.143 125.5,170.5C 126.442,170.608 127.275,170.941 128,171.5C 128.5,230.499 128.667,289.499 128.5,348.5C 125.43,348.632 122.43,348.299 119.5,347.5 Z"/></g>
<g><path style="opacity:1" fill="#050101" d="M 484.5,187.5 C 486.517,188.529 488.517,189.529 490.5,190.5C 497.235,195.23 504.235,199.563 511.5,203.5C 511.667,249.835 511.5,296.168 511,342.5C 503.127,345.716 495.627,349.383 488.5,353.5C 488.167,353.5 487.833,353.5 487.5,353.5C 486.417,353.539 485.417,353.873 484.5,354.5C 483.169,298.668 483.169,243.001 484.5,187.5 Z"/></g>
<g><path style="opacity:1" fill="#81331c" d="M 244.5,182.5 C 243.602,190.124 243.269,197.791 243.5,205.5C 242.508,198.352 242.175,191.019 242.5,183.5C 243.167,183.167 243.833,182.833 244.5,182.5 Z"/></g>
<g><path style="opacity:1" fill="#ae5333" d="M 459.5,159.5 C 461.823,161.322 463.989,163.322 466,165.5C 466.832,234.001 466.665,302.335 465.5,370.5C 465.167,370.5 464.833,370.5 464.5,370.5C 464.667,302.166 464.5,233.833 464,165.5C 461.52,164.193 460.02,162.193 459.5,159.5 Z"/></g>
<g><path style="opacity:1" fill="#c8603e" d="M 486.5,181.5 C 484.143,181.337 481.81,181.503 479.5,182C 478.594,183.699 478.261,185.533 478.5,187.5C 478.333,244.501 478.5,301.501 479,358.5C 479.839,359.624 481.006,360.291 482.5,360.5C 484.207,360.272 485.874,359.938 487.5,359.5C 484.821,362.27 481.654,362.936 478,361.5C 477.333,301.167 477.333,240.833 478,180.5C 481.064,179.216 483.898,179.549 486.5,181.5 Z"/></g>
<g><path style="opacity:1" fill="#863116" d="M 484.5,187.5 C 483.169,243.001 483.169,298.668 484.5,354.5C 485.417,353.873 486.417,353.539 487.5,353.5C 486.365,355.213 484.698,355.88 482.5,355.5C 482.5,299.5 482.5,243.5 482.5,187.5C 483.167,186.167 483.833,186.167 484.5,187.5 Z"/></g>
<g><path style="opacity:1" fill="#67311e" d="M 246.5,171.5 C 245.5,172.833 244.5,174.167 243.5,175.5C 240.415,177.349 238.749,180.016 238.5,183.5C 237.506,192.652 237.173,201.985 237.5,211.5C 236.342,202.009 236.175,192.342 237,182.5C 238.592,177.412 241.759,173.745 246.5,171.5 Z"/></g>
<g><path style="opacity:1" fill="#c55d3c" d="M 358.5,184.5 C 359.268,185.263 359.768,186.263 360,187.5C 360.333,196.5 360.667,205.5 361,214.5C 361.308,215.308 361.808,215.975 362.5,216.5C 374.097,218.377 385.764,219.71 397.5,220.5C 394.375,221.479 391.042,221.813 387.5,221.5C 378.414,220.708 369.414,219.374 360.5,217.5C 359.749,216.624 359.249,215.624 359,214.5C 358.5,204.506 358.334,194.506 358.5,184.5 Z"/></g>
<g><path style="opacity:1" fill="#954d36" d="M 360.5,176.5 C 363.038,179.245 364.538,182.578 365,186.5C 365.5,195.16 365.666,203.827 365.5,212.5C 364.883,212.389 364.383,212.056 364,211.5C 364.3,199.55 363.134,187.884 360.5,176.5 Z"/></g>
<g><path style="opacity:1" fill="#e35e32" d="M 478.5,187.5 C 479.167,237.668 479.833,288.002 480.5,338.5C 481.167,288.002 481.833,237.668 482.5,187.5C 482.5,243.5 482.5,299.5 482.5,355.5C 484.698,355.88 486.365,355.213 487.5,353.5C 487.833,353.5 488.167,353.5 488.5,353.5C 489.833,353.167 491.167,352.833 492.5,352.5C 493.635,354.213 495.302,354.88 497.5,354.5C 497.5,354.833 497.5,355.167 497.5,355.5C 494.433,357.413 491.099,358.747 487.5,359.5C 485.874,359.938 484.207,360.272 482.5,360.5C 481.006,360.291 479.839,359.624 479,358.5C 478.5,301.501 478.333,244.501 478.5,187.5 Z"/></g>
<g><path style="opacity:1" fill="#e95b2e" d="M 243.5,175.5 C 244.497,175.47 245.164,175.97 245.5,177C 244.094,178.978 243.094,181.145 242.5,183.5C 242.175,191.019 242.508,198.352 243.5,205.5C 243.5,205.833 243.5,206.167 243.5,206.5C 254.397,209.328 265.397,211.828 276.5,214C 271.833,214.667 267.167,214.667 262.5,214C 254.535,212.637 246.535,211.47 238.5,210.5C 238.5,201.5 238.5,192.5 238.5,183.5C 238.749,180.016 240.415,177.349 243.5,175.5 Z"/></g>
<g><path style="opacity:1" fill="#ed592d" d="M 486.5,181.5 C 487.5,182.167 488.5,182.833 489.5,183.5C 492.147,186.13 495.147,188.463 498.5,190.5C 498.53,191.497 498.03,192.164 497,192.5C 494.846,191.726 492.679,191.059 490.5,190.5C 488.517,189.529 486.517,188.529 484.5,187.5C 483.833,186.167 483.167,186.167 482.5,187.5C 481.833,237.668 481.167,288.002 480.5,338.5C 479.833,288.002 479.167,237.668 478.5,187.5C 478.261,185.533 478.594,183.699 479.5,182C 481.81,181.503 484.143,181.337 486.5,181.5 Z"/></g>
<g><path style="opacity:1" fill="#ec5a2e" d="M 505.5,194.5 C 508.634,195.901 511.634,197.568 514.5,199.5C 515.49,248.125 515.824,296.791 515.5,345.5C 509.459,348.572 503.459,351.572 497.5,354.5C 495.302,354.88 493.635,354.213 492.5,352.5C 499.524,349.725 506.19,346.391 512.5,342.5C 513.665,296.002 513.832,249.335 513,202.5C 509.584,200.208 506.084,198.041 502.5,196C 503.244,194.961 504.244,194.461 505.5,194.5 Z"/></g>
<g><path style="opacity:1" fill="#c35f3e" d="M 238.5,183.5 C 238.5,192.5 238.5,201.5 238.5,210.5C 246.535,211.47 254.535,212.637 262.5,214C 267.167,214.667 271.833,214.667 276.5,214C 265.397,211.828 254.397,209.328 243.5,206.5C 274.743,210.763 305.743,215.763 336.5,221.5C 318.829,219.277 301.162,216.944 283.5,214.5C 281.5,214.833 279.5,215.167 277.5,215.5C 284.114,216.99 290.781,218.156 297.5,219C 298.571,219.852 299.571,220.685 300.5,221.5C 279.482,218.275 258.482,214.941 237.5,211.5C 237.173,201.985 237.506,192.652 238.5,183.5 Z"/></g>
<g><path style="opacity:1" fill="#c65f3c" d="M 365.5,212.5 C 374.903,213.448 384.236,214.781 393.5,216.5C 392.726,217.147 391.726,217.48 390.5,217.5C 385.186,216.822 379.852,216.322 374.5,216C 371.269,215.139 368.269,213.972 365.5,212.5 Z"/></g>
<g><path style="opacity:1" fill="#de5e38" d="M 514.5,199.5 C 515.117,199.611 515.617,199.944 516,200.5C 516.5,248.832 516.667,297.166 516.5,345.5C 516.167,345.5 515.833,345.5 515.5,345.5C 515.824,296.791 515.49,248.125 514.5,199.5 Z"/></g>
<g><path style="opacity:1" fill="#d85f37" d="M 490.5,190.5 C 492.679,191.059 494.846,191.726 497,192.5C 498.03,192.164 498.53,191.497 498.5,190.5C 501.317,191.095 503.65,192.428 505.5,194.5C 504.244,194.461 503.244,194.961 502.5,196C 506.084,198.041 509.584,200.208 513,202.5C 513.832,249.335 513.665,296.002 512.5,342.5C 512.832,295.997 512.499,249.664 511.5,203.5C 504.235,199.563 497.235,195.23 490.5,190.5 Z"/></g>
<g><path style="opacity:1" fill="#c75532" d="M 112.5,174.5 C 111.859,175.482 111.193,176.482 110.5,177.5C 111.167,177.833 111.833,178.167 112.5,178.5C 116.128,177.29 119.794,176.29 123.5,175.5C 115.111,180.027 106.444,184.027 97.5,187.5C 97.1667,187.5 96.8333,187.5 96.5,187.5C 97.4787,185.855 98.812,184.521 100.5,183.5C 99.277,182.386 97.9437,182.219 96.5,183C 95.3333,184.167 94.1667,185.333 93,186.5C 92.1667,232.837 92.3334,279.17 93.5,325.5C 94.1667,279.335 94.8333,233.335 95.5,187.5C 94.8382,234.512 95.5049,281.179 97.5,327.5C 106.139,332.822 114.805,338.156 123.5,343.5C 124.5,287.504 124.833,231.504 124.5,175.5C 125.833,203.159 126.5,231.159 126.5,259.5C 126.333,287.5 126.167,315.5 126,343.5C 123.148,344.865 120.482,344.531 118,342.5C 117.5,342.833 117,343.167 116.5,343.5C 117.826,344.642 118.826,345.976 119.5,347.5C 110.485,343.324 101.818,338.491 93.5,333C 92.1772,332.184 91.5106,331.017 91.5,329.5C 91.3333,281.499 91.5,233.499 92,185.5C 93.3756,184.295 94.5423,182.962 95.5,181.5C 101.048,178.893 106.715,176.56 112.5,174.5 Z"/></g>
<g><path style="opacity:1" fill="#020000" d="M 123.5,175.5 C 123.833,175.5 124.167,175.5 124.5,175.5C 124.833,231.504 124.5,287.504 123.5,343.5C 114.805,338.156 106.139,332.822 97.5,327.5C 97.5,280.833 97.5,234.167 97.5,187.5C 106.444,184.027 115.111,180.027 123.5,175.5 Z"/></g>
<g><path style="opacity:1" fill="#854730" d="M 95.5,187.5 C 95.8333,187.5 96.1667,187.5 96.5,187.5C 96.8333,187.5 97.1667,187.5 97.5,187.5C 97.5,234.167 97.5,280.833 97.5,327.5C 95.5049,281.179 94.8382,234.512 95.5,187.5 Z"/></g>
<g><path style="opacity:1" fill="#ad5639" d="M 511.5,203.5 C 512.499,249.664 512.832,295.997 512.5,342.5C 506.19,346.391 499.524,349.725 492.5,352.5C 491.167,352.833 489.833,353.167 488.5,353.5C 495.627,349.383 503.127,345.716 511,342.5C 511.5,296.168 511.667,249.835 511.5,203.5 Z"/></g>
<g><path style="opacity:1" fill="#f1582a" d="M 96.5,187.5 C 96.1667,187.5 95.8333,187.5 95.5,187.5C 94.8333,233.335 94.1667,279.335 93.5,325.5C 92.3334,279.17 92.1667,232.837 93,186.5C 94.1667,185.333 95.3333,184.167 96.5,183C 97.9437,182.219 99.277,182.386 100.5,183.5C 98.812,184.521 97.4787,185.855 96.5,187.5 Z"/></g>
<g><path style="opacity:1" fill="#ae5b40" d="M 314.5,223.5 C 318.182,223.335 321.848,223.501 325.5,224C 334.055,225.419 342.388,227.252 350.5,229.5C 338.302,227.911 326.302,225.911 314.5,223.5 Z"/></g>
<g><path style="opacity:1" fill="#ad5438" d="M 489.5,183.5 C 499.081,188.204 508.248,193.538 517,199.5C 517.832,248.335 517.665,297.002 516.5,345.5C 516.667,297.166 516.5,248.832 516,200.5C 515.617,199.944 515.117,199.611 514.5,199.5C 511.634,197.568 508.634,195.901 505.5,194.5C 503.65,192.428 501.317,191.095 498.5,190.5C 495.147,188.463 492.147,186.13 489.5,183.5 Z"/></g>
<g><path style="opacity:1" fill="#9d573f" d="M 95.5,181.5 C 94.5423,182.962 93.3756,184.295 92,185.5C 91.5,233.499 91.3333,281.499 91.5,329.5C 90.3351,281.335 90.1684,233.002 91,184.5C 92.129,182.859 93.629,181.859 95.5,181.5 Z"/></g>
<g><path style="opacity:1" fill="#bf5d3d" d="M 351.5,229.5 C 358.17,229.889 364.836,230.389 371.5,231C 372.571,231.852 373.571,232.685 374.5,233.5C 366.615,232.687 358.949,231.353 351.5,229.5 Z"/></g>
<g><path style="opacity:1" fill="#e95b2f" d="M 436.5,143.5 C 437.043,143.56 437.376,143.893 437.5,144.5C 435.257,145.474 432.924,145.808 430.5,145.5C 430.5,177.167 430.5,208.833 430.5,240.5C 420.662,238.956 410.662,237.956 400.5,237.5C 400.167,237.5 399.833,237.5 399.5,237.5C 398.486,236.235 396.986,235.569 395,235.5C 388.894,234.245 382.728,233.579 376.5,233.5C 375.833,233.5 375.167,233.5 374.5,233.5C 373.571,232.685 372.571,231.852 371.5,231C 364.836,230.389 358.17,229.889 351.5,229.5C 351.167,229.5 350.833,229.5 350.5,229.5C 342.388,227.252 334.055,225.419 325.5,224C 321.848,223.501 318.182,223.335 314.5,223.5C 309.773,223.221 305.107,222.554 300.5,221.5C 299.571,220.685 298.571,219.852 297.5,219C 290.781,218.156 284.114,216.99 277.5,215.5C 279.5,215.167 281.5,214.833 283.5,214.5C 301.162,216.944 318.829,219.277 336.5,221.5C 338.167,221.5 339.833,221.5 341.5,221.5C 341.62,222.586 342.287,223.253 343.5,223.5C 348.781,224.658 354.114,225.491 359.5,226C 361.044,226.29 362.377,226.956 363.5,228C 372.886,228.414 382.219,229.248 391.5,230.5C 391.918,231.222 392.584,231.722 393.5,232C 399.161,232.633 404.828,233.133 410.5,233.5C 414.519,233.646 418.519,233.979 422.5,234.5C 423.209,235.404 424.209,235.737 425.5,235.5C 427.328,204.85 428.161,173.85 428,142.5C 428.725,141.941 429.558,141.608 430.5,141.5C 432.516,142.178 434.516,142.844 436.5,143.5 Z"/></g>
<g><path style="opacity:1" fill="#bc5f41" d="M 341.5,221.5 C 358.315,224.327 374.982,227.327 391.5,230.5C 382.219,229.248 372.886,228.414 363.5,228C 362.377,226.956 361.044,226.29 359.5,226C 354.114,225.491 348.781,224.658 343.5,223.5C 342.287,223.253 341.62,222.586 341.5,221.5 Z"/></g>
<g><path style="opacity:1" fill="#b05f44" d="M 391.5,230.5 C 398.078,230.764 404.411,231.764 410.5,233.5C 404.828,233.133 399.161,232.633 393.5,232C 392.584,231.722 391.918,231.222 391.5,230.5 Z"/></g>
<g><path style="opacity:1" fill="#b25a42" d="M 376.5,233.5 C 382.728,233.579 388.894,234.245 395,235.5C 396.986,235.569 398.486,236.235 399.5,237.5C 391.615,236.687 383.949,235.353 376.5,233.5 Z"/></g>
<g><path style="opacity:1" fill="#ea5b2e" d="M 209.5,235.5 C 210.23,237.045 211.563,237.878 213.5,238C 219.477,238.831 225.477,239.331 231.5,239.5C 235.641,241.073 239.974,242.407 244.5,243.5C 242.333,243.833 240.167,244.167 238,244.5C 226.75,243.193 215.584,241.526 204.5,239.5C 204.333,218.164 204.5,196.831 205,175.5C 205.084,171.565 206.084,167.898 208,164.5C 207.46,185.484 207.46,206.484 208,227.5C 208.183,230.365 208.683,233.031 209.5,235.5 Z"/></g>
<g><path style="opacity:1" fill="#c15e40" d="M 209.5,235.5 C 217.02,236.516 224.353,237.85 231.5,239.5C 225.477,239.331 219.477,238.831 213.5,238C 211.563,237.878 210.23,237.045 209.5,235.5 Z"/></g>
<g><path style="opacity:1" fill="#c55f40" d="M 247.5,247.5 C 253.502,247.909 259.502,248.409 265.5,249C 266.571,249.852 267.571,250.685 268.5,251.5C 261.276,250.688 254.276,249.354 247.5,247.5 Z"/></g>
<g><path style="opacity:1" fill="#dc5d36" d="M 122.5,169.5 C 124.792,169.244 126.959,169.577 129,170.5C 129.5,229.499 129.667,288.499 129.5,347.5C 129.5,348.5 129.5,349.5 129.5,350.5C 125.506,351.843 122.173,350.843 119.5,347.5C 122.43,348.299 125.43,348.632 128.5,348.5C 128.667,289.499 128.5,230.499 128,171.5C 127.275,170.941 126.442,170.608 125.5,170.5C 121.226,172.143 116.893,173.477 112.5,174.5C 115.614,172.458 118.948,170.791 122.5,169.5 Z"/></g>
<g><path style="opacity:1" fill="#ea5b2e" d="M 303.5,251.5 C 308.638,253.626 313.971,254.959 319.5,255.5C 322.305,256.319 325.305,256.819 328.5,257C 326.03,258.114 323.364,258.614 320.5,258.5C 312.339,256.852 304.006,255.852 295.5,255.5C 287.515,252.865 279.182,251.532 270.5,251.5C 269.833,251.5 269.167,251.5 268.5,251.5C 267.571,250.685 266.571,249.852 265.5,249C 259.502,248.409 253.502,247.909 247.5,247.5C 247.047,246.542 246.381,245.708 245.5,245C 250.5,244.333 255.5,244.333 260.5,245C 274.764,247.754 289.098,249.92 303.5,251.5 Z"/></g>
<g><path style="opacity:1" fill="#b45d40" d="M 270.5,251.5 C 279.182,251.532 287.515,252.865 295.5,255.5C 286.888,255.119 278.555,253.786 270.5,251.5 Z"/></g>
<g><path style="opacity:1" fill="#b85c40" d="M 303.5,251.5 C 311.732,252.197 319.732,253.53 327.5,255.5C 324.833,255.5 322.167,255.5 319.5,255.5C 313.971,254.959 308.638,253.626 303.5,251.5 Z"/></g>
<g><path style="opacity:1" fill="#bd6244" d="M 122.5,169.5 C 123.449,168.848 124.615,168.514 126,168.5C 128.008,168.307 129.508,168.974 130.5,170.5C 130.832,229.669 130.499,288.669 129.5,347.5C 129.667,288.499 129.5,229.499 129,170.5C 126.959,169.577 124.792,169.244 122.5,169.5 Z"/></g>
<g><path style="opacity:1" fill="#67321e" d="M 130.5,170.5 C 131.665,229.999 131.832,289.665 131,349.5C 130.617,350.056 130.117,350.389 129.5,350.5C 129.5,349.5 129.5,348.5 129.5,347.5C 130.499,288.669 130.832,229.669 130.5,170.5 Z"/></g>
<g><path style="opacity:1" fill="#d35e38" d="M 295.5,255.5 C 304.006,255.852 312.339,256.852 320.5,258.5C 323.364,258.614 326.03,258.114 328.5,257C 325.305,256.819 322.305,256.319 319.5,255.5C 322.167,255.5 324.833,255.5 327.5,255.5C 335.712,256.354 343.712,257.688 351.5,259.5C 351.5,259.833 351.5,260.167 351.5,260.5C 348.15,260.335 344.817,260.502 341.5,261C 342.381,261.708 343.047,262.542 343.5,263.5C 327.233,261.678 311.233,259.011 295.5,255.5 Z"/></g>
<g><path style="opacity:1" fill="#ac5a3f" d="M 229.5,260.5 C 229.5,260.167 229.5,259.833 229.5,259.5C 238.078,260.087 246.411,261.42 254.5,263.5C 246.107,262.909 237.774,261.909 229.5,260.5 Z"/></g>
<g><path style="opacity:1" fill="#c75e3d" d="M 185.5,251.5 C 200.377,253.716 215.043,256.382 229.5,259.5C 229.5,259.833 229.5,260.167 229.5,260.5C 226.15,260.665 222.817,260.498 219.5,260C 217.51,258.249 215.177,257.249 212.5,257C 207.136,256.171 201.802,256.337 196.5,257.5C 211.003,259.613 225.336,262.113 239.5,265C 245.185,266.173 250.518,267.673 255.5,269.5C 231.454,265.715 207.454,261.715 183.5,257.5C 183.5,257.167 183.5,256.833 183.5,256.5C 187.226,256.823 190.893,256.489 194.5,255.5C 191.083,254.901 188.083,253.568 185.5,251.5 Z"/></g>
<g><path style="opacity:1" fill="#ae5c42" d="M 255.5,263.5 C 261.095,263.754 266.428,264.754 271.5,266.5C 265.884,266.344 260.551,265.344 255.5,263.5 Z"/></g>
<g><path style="opacity:1" fill="#c55f40" d="M 343.5,263.5 C 349.502,263.909 355.502,264.409 361.5,265C 362.571,265.852 363.571,266.685 364.5,267.5C 357.276,266.688 350.276,265.354 343.5,263.5 Z"/></g>
<g><path style="opacity:1" fill="#b55e42" d="M 351.5,260.5 C 351.5,260.167 351.5,259.833 351.5,259.5C 367.729,261.538 383.729,264.205 399.5,267.5C 383.472,265.428 367.472,263.095 351.5,260.5 Z"/></g>
<g><path style="opacity:1" fill="#bf6242" d="M 271.5,266.5 C 282.047,267.647 292.38,269.314 302.5,271.5C 291.71,270.978 281.377,269.312 271.5,266.5 Z"/></g>
<g><path style="opacity:1" fill="#ea5b2e" d="M 351.5,260.5 C 367.472,263.095 383.472,265.428 399.5,267.5C 404.638,269.626 409.971,270.959 415.5,271.5C 418.028,272.166 420.694,272.832 423.5,273.5C 419.893,274.489 416.226,274.823 412.5,274.5C 405.617,272.696 398.617,271.696 391.5,271.5C 383.515,268.865 375.182,267.532 366.5,267.5C 365.833,267.5 365.167,267.5 364.5,267.5C 363.571,266.685 362.571,265.852 361.5,265C 355.502,264.409 349.502,263.909 343.5,263.5C 343.047,262.542 342.381,261.708 341.5,261C 344.817,260.502 348.15,260.335 351.5,260.5 Z"/></g>
<g><path style="opacity:1" fill="#b45d40" d="M 366.5,267.5 C 375.182,267.532 383.515,268.865 391.5,271.5C 382.888,271.119 374.555,269.786 366.5,267.5 Z"/></g>
<g><path style="opacity:1" fill="#b85c40" d="M 399.5,267.5 C 407.732,268.197 415.732,269.53 423.5,271.5C 420.833,271.5 418.167,271.5 415.5,271.5C 409.971,270.959 404.638,269.626 399.5,267.5 Z"/></g>
<g><path style="opacity:1" fill="#cb5f3e" d="M 258.5,269.5 C 265.17,269.889 271.836,270.389 278.5,271C 279.252,271.671 279.586,272.504 279.5,273.5C 272.276,272.688 265.276,271.354 258.5,269.5 Z"/></g>
<g><path style="opacity:1" fill="#ea5b2e" d="M 229.5,260.5 C 237.774,261.909 246.107,262.909 254.5,263.5C 254.833,263.5 255.167,263.5 255.5,263.5C 260.551,265.344 265.884,266.344 271.5,266.5C 281.377,269.312 291.71,270.978 302.5,271.5C 302.833,271.5 303.167,271.5 303.5,271.5C 304.334,272.748 305.667,273.415 307.5,273.5C 311.476,274.164 315.476,274.497 319.5,274.5C 320.334,275.748 321.667,276.415 323.5,276.5C 332.48,277.748 341.48,278.748 350.5,279.5C 350.833,279.5 351.167,279.5 351.5,279.5C 358.875,281.786 366.541,283.119 374.5,283.5C 375.167,283.5 375.833,283.5 376.5,283.5C 376.611,284.117 376.944,284.617 377.5,285C 384.783,286.327 392.116,287.16 399.5,287.5C 400.167,287.5 400.833,287.5 401.5,287.5C 402.925,288.922 403.925,290.589 404.5,292.5C 404.924,312.207 404.424,331.874 403,351.5C 403.157,331.807 402.324,312.474 400.5,293.5C 400.167,293.5 399.833,293.5 399.5,293.5C 399.5,292.5 399.5,291.5 399.5,290.5C 392.151,290.451 384.817,290.118 377.5,289.5C 376.833,289.5 376.167,289.5 375.5,289.5C 375.586,288.504 375.252,287.671 374.5,287C 367.5,286.423 360.5,285.923 353.5,285.5C 352.833,285.5 352.167,285.5 351.5,285.5C 350.666,284.252 349.333,283.585 347.5,283.5C 336.335,281.725 325.335,279.558 314.5,277C 303.464,275.97 292.464,274.804 281.5,273.5C 280.833,273.5 280.167,273.5 279.5,273.5C 279.586,272.504 279.252,271.671 278.5,271C 271.836,270.389 265.17,269.889 258.5,269.5C 257.5,269.5 256.5,269.5 255.5,269.5C 250.518,267.673 245.185,266.173 239.5,265C 225.336,262.113 211.003,259.613 196.5,257.5C 201.802,256.337 207.136,256.171 212.5,257C 215.177,257.249 217.51,258.249 219.5,260C 222.817,260.498 226.15,260.665 229.5,260.5 Z"/></g>
<g><path style="opacity:1" fill="#b85b3f" d="M 391.5,271.5 C 398.617,271.696 405.617,272.696 412.5,274.5C 412.5,274.833 412.5,275.167 412.5,275.5C 405.235,274.897 398.235,273.563 391.5,271.5 Z"/></g>
<g><path style="opacity:1" fill="#bb5d40" d="M 303.5,271.5 C 309.076,271.871 314.409,272.871 319.5,274.5C 315.476,274.497 311.476,274.164 307.5,273.5C 305.667,273.415 304.334,272.748 303.5,271.5 Z"/></g>
<g><path style="opacity:1" fill="#be6041" d="M 319.5,274.5 C 330.067,275.531 340.4,277.198 350.5,279.5C 341.48,278.748 332.48,277.748 323.5,276.5C 321.667,276.415 320.334,275.748 319.5,274.5 Z"/></g>
<g><path style="opacity:1" fill="#c35f3f" d="M 281.5,273.5 C 292.464,274.804 303.464,275.97 314.5,277C 325.335,279.558 336.335,281.725 347.5,283.5C 349.333,283.585 350.666,284.252 351.5,285.5C 327.969,281.912 304.635,277.912 281.5,273.5 Z"/></g>
<g><path style="opacity:1" fill="#aa593e" d="M 351.5,279.5 C 359.39,280.29 367.057,281.623 374.5,283.5C 366.541,283.119 358.875,281.786 351.5,279.5 Z"/></g>
<g><path style="opacity:1" fill="#b86045" d="M 376.5,283.5 C 384.355,284.475 392.022,285.809 399.5,287.5C 392.116,287.16 384.783,286.327 377.5,285C 376.944,284.617 376.611,284.117 376.5,283.5 Z"/></g>
<g><path style="opacity:1" fill="#c65e3d" d="M 353.5,285.5 C 360.5,285.923 367.5,286.423 374.5,287C 375.252,287.671 375.586,288.504 375.5,289.5C 367.965,288.579 360.631,287.246 353.5,285.5 Z"/></g>
<g><path style="opacity:1" fill="#e85b2e" d="M 458.5,159.5 C 458.833,159.5 459.167,159.5 459.5,159.5C 460.02,162.193 461.52,164.193 464,165.5C 464.5,233.833 464.667,302.166 464.5,370.5C 459.155,375.272 452.821,378.105 445.5,379C 440.817,381.841 435.817,384.007 430.5,385.5C 428.971,385.471 427.804,384.804 427,383.5C 426.833,347.998 426.333,312.664 425.5,277.5C 425.5,276.5 425.5,275.5 425.5,274.5C 426.5,274.5 427.5,274.5 428.5,274.5C 427.986,276.512 427.82,278.512 428,280.5C 428.333,280.167 428.667,279.833 429,279.5C 429.5,313.832 429.667,348.165 429.5,382.5C 435.763,380.367 441.763,377.701 447.5,374.5C 451.049,373.737 454.549,372.737 458,371.5C 459.595,370.644 460.428,369.311 460.5,367.5C 461.665,301.001 461.832,234.335 461,167.5C 460.184,166.177 459.017,165.511 457.5,165.5C 456.415,163.413 454.749,162.08 452.5,161.5C 451.334,159.834 451.334,158.167 452.5,156.5C 454.302,157.986 456.302,158.986 458.5,159.5 Z"/></g>
<g><path style="opacity:1" fill="#883015" d="M 427.5,271.5 C 428.822,271.33 429.989,271.663 431,272.5C 431.5,308.165 431.667,343.832 431.5,379.5C 430.833,344.331 430.167,308.998 429.5,273.5C 428.478,273.145 427.811,272.478 427.5,271.5 Z"/></g>
<g><path style="opacity:1" fill="#da5e38" d="M 415.5,271.5 C 418.167,271.5 420.833,271.5 423.5,271.5C 424.833,271.5 426.167,271.5 427.5,271.5C 427.811,272.478 428.478,273.145 429.5,273.5C 430.167,308.998 430.833,344.331 431.5,379.5C 436.833,377.833 442.167,376.167 447.5,374.5C 441.763,377.701 435.763,380.367 429.5,382.5C 429.667,348.165 429.5,313.832 429,279.5C 428.667,279.833 428.333,280.167 428,280.5C 427.82,278.512 427.986,276.512 428.5,274.5C 427.5,274.5 426.5,274.5 425.5,274.5C 425.5,275.5 425.5,276.5 425.5,277.5C 421.106,277.156 416.772,276.49 412.5,275.5C 412.5,275.167 412.5,274.833 412.5,274.5C 416.226,274.823 419.893,274.489 423.5,273.5C 420.694,272.832 418.028,272.166 415.5,271.5 Z"/></g>
<g><path style="opacity:1" fill="#bb6041" d="M 185.5,287.5 C 193.355,288.475 201.022,289.809 208.5,291.5C 202.802,291.404 197.135,290.904 191.5,290C 189.148,289.76 187.148,288.927 185.5,287.5 Z"/></g>
<g><path style="opacity:1" fill="#c85f40" d="M 377.5,289.5 C 384.817,290.118 392.151,290.451 399.5,290.5C 399.5,291.5 399.5,292.5 399.5,293.5C 391.991,292.432 384.658,291.099 377.5,289.5 Z"/></g>
<g><path style="opacity:1" fill="#be6143" d="M 210.5,291.5 C 230.006,294.569 249.339,297.902 268.5,301.5C 251.079,299.767 233.746,297.267 216.5,294C 214.148,293.76 212.148,292.927 210.5,291.5 Z"/></g>
<g><path style="opacity:1" fill="#4c2816" d="M 177.5,286.5 C 178.159,317.518 177.492,348.185 175.5,378.5C 175.5,378.167 175.5,377.833 175.5,377.5C 176.167,347.167 176.833,316.833 177.5,286.5 Z"/></g>
<g><path style="opacity:1" fill="#a7583d" d="M 401.5,287.5 C 402.959,287.433 404.292,287.766 405.5,288.5C 406.472,305.453 406.805,322.453 406.5,339.5C 406.821,345.026 406.488,350.36 405.5,355.5C 405.831,334.327 405.497,313.327 404.5,292.5C 403.925,290.589 402.925,288.922 401.5,287.5 Z"/></g>
<g><path style="opacity:1" fill="#be5d40" d="M 177.5,286.5 C 179.735,286.205 181.735,286.539 183.5,287.5C 181.833,287.5 180.167,287.5 178.5,287.5C 178.667,318.168 178.5,348.835 178,379.5C 176.539,380.883 175.706,380.549 175.5,378.5C 177.492,348.185 178.159,317.518 177.5,286.5 Z"/></g>
<g><path style="opacity:1" fill="#e95b30" d="M 183.5,287.5 C 184.167,287.5 184.833,287.5 185.5,287.5C 187.148,288.927 189.148,289.76 191.5,290C 197.135,290.904 202.802,291.404 208.5,291.5C 209.167,291.5 209.833,291.5 210.5,291.5C 212.148,292.927 214.148,293.76 216.5,294C 233.746,297.267 251.079,299.767 268.5,301.5C 269.5,301.5 270.5,301.5 271.5,301.5C 275.87,303.173 280.536,304.673 285.5,306C 296.754,307.759 308.088,308.925 319.5,309.5C 327.197,311.894 335.197,313.227 343.5,313.5C 343.953,314.458 344.619,315.292 345.5,316C 353.128,317.272 360.795,318.105 368.5,318.5C 368.5,319.5 368.5,320.5 368.5,321.5C 357.259,319.525 345.925,318.192 334.5,317.5C 333.5,317.5 332.5,317.5 331.5,317.5C 330.158,316.207 328.491,315.374 326.5,315C 312.606,312.321 298.606,310.488 284.5,309.5C 284.167,309.5 283.833,309.5 283.5,309.5C 270.548,306.892 257.548,304.059 244.5,301C 237.5,300.423 230.5,299.923 223.5,299.5C 222.5,299.5 221.5,299.5 220.5,299.5C 219.4,298.442 218.066,297.608 216.5,297C 206.601,294.951 196.601,293.785 186.5,293.5C 185.5,293.5 184.5,293.5 183.5,293.5C 182.668,323.331 182.168,353.331 182,383.5C 179.806,385.837 177.306,386.17 174.5,384.5C 172.47,382.463 170.804,380.13 169.5,377.5C 169.667,377.167 169.833,376.833 170,376.5C 171.725,377.464 173.559,378.131 175.5,378.5C 175.706,380.549 176.539,380.883 178,379.5C 178.5,348.835 178.667,318.168 178.5,287.5C 180.167,287.5 181.833,287.5 183.5,287.5 Z"/></g>
<g><path style="opacity:1" fill="#c45f3e" d="M 186.5,293.5 C 196.601,293.785 206.601,294.951 216.5,297C 218.066,297.608 219.4,298.442 220.5,299.5C 208.974,297.859 197.641,295.859 186.5,293.5 Z"/></g>
<g><path style="opacity:1" fill="#5d2f1e" d="M 405.5,288.5 C 406.117,288.611 406.617,288.944 407,289.5C 407.828,306.338 407.662,323.005 406.5,339.5C 406.805,322.453 406.472,305.453 405.5,288.5 Z"/></g>
<g><path style="opacity:1" fill="#b95d3e" d="M 223.5,299.5 C 230.5,299.923 237.5,300.423 244.5,301C 257.548,304.059 270.548,306.892 283.5,309.5C 263.266,306.782 243.266,303.449 223.5,299.5 Z"/></g>
<g><path style="opacity:1" fill="#8b341a" d="M 183.5,293.5 C 183.833,324.174 183.5,354.841 182.5,385.5C 179.433,387.096 176.766,386.763 174.5,384.5C 177.306,386.17 179.806,385.837 182,383.5C 182.168,353.331 182.668,323.331 183.5,293.5 Z"/></g>
<g><path style="opacity:1" fill="#bf5f3f" d="M 271.5,301.5 C 287.691,303.809 303.691,306.476 319.5,309.5C 308.088,308.925 296.754,307.759 285.5,306C 280.536,304.673 275.87,303.173 271.5,301.5 Z"/></g>
<g><path style="opacity:1" fill="#b65b40" d="M 284.5,309.5 C 298.606,310.488 312.606,312.321 326.5,315C 328.491,315.374 330.158,316.207 331.5,317.5C 315.621,315.32 299.954,312.654 284.5,309.5 Z"/></g>
<g><path style="opacity:1" fill="#ac5e41" d="M 319.5,309.5 C 327.702,310.383 335.702,311.716 343.5,313.5C 335.197,313.227 327.197,311.894 319.5,309.5 Z"/></g>
<g><path style="opacity:1" fill="#d45c37" d="M 343.5,313.5 C 352.853,314.704 362.186,316.037 371.5,317.5C 371.666,326.173 371.5,334.84 371,343.5C 369.293,345.909 368.46,348.575 368.5,351.5C 367.833,351.5 367.5,351.833 367.5,352.5C 367.167,352.5 366.833,352.5 366.5,352.5C 366.5,351.5 366.5,350.5 366.5,349.5C 364.315,349.704 362.315,350.37 360.5,351.5C 361.823,349.529 363.156,347.529 364.5,345.5C 365.497,337.862 365.831,330.196 365.5,322.5C 354.885,321.786 344.552,320.119 334.5,317.5C 345.925,318.192 357.259,319.525 368.5,321.5C 368.5,320.5 368.5,319.5 368.5,318.5C 360.795,318.105 353.128,317.272 345.5,316C 344.619,315.292 343.953,314.458 343.5,313.5 Z"/></g>
<g><path style="opacity:1" fill="#653425" d="M 371.5,317.5 C 372.657,326.324 372.824,335.324 372,344.5C 371.478,347.281 370.311,349.615 368.5,351.5C 368.46,348.575 369.293,345.909 371,343.5C 371.5,334.84 371.666,326.173 371.5,317.5 Z"/></g>
<g><path style="opacity:1" fill="#ad593c" d="M 515.5,345.5 C 515.833,345.5 516.167,345.5 516.5,345.5C 510.965,350.103 504.632,353.437 497.5,355.5C 497.5,355.167 497.5,354.833 497.5,354.5C 503.459,351.572 509.459,348.572 515.5,345.5 Z"/></g>
<g><path style="opacity:1" fill="#cf5631" d="M 404.5,292.5 C 405.497,313.327 405.831,334.327 405.5,355.5C 403.502,359.126 402.502,363.126 402.5,367.5C 400.57,368.763 398.903,370.43 397.5,372.5C 396.56,368.915 397.226,365.582 399.5,362.5C 400.496,356.537 400.829,350.537 400.5,344.5C 400.5,327.5 400.5,310.5 400.5,293.5C 402.324,312.474 403.157,331.807 403,351.5C 404.424,331.874 404.924,312.207 404.5,292.5 Z"/></g>
<g><path style="opacity:1" fill="#c35a3a" d="M 258.5,353.5 C 258.5,353.833 258.5,354.167 258.5,354.5C 253.508,354.579 253.508,355.579 258.5,357.5C 290.828,358.667 323.162,358.833 355.5,358C 359.804,357.182 363.47,355.348 366.5,352.5C 366.833,352.5 367.167,352.5 367.5,352.5C 364.875,355.815 361.542,358.149 357.5,359.5C 323.427,359.826 289.427,359.493 255.5,358.5C 250.445,356.779 247.112,353.445 245.5,348.5C 245.5,348.167 245.5,347.833 245.5,347.5C 246.5,347.5 247.5,347.5 248.5,347.5C 248.833,349.5 249.167,351.5 249.5,353.5C 250.978,353.762 252.311,353.429 253.5,352.5C 252.095,349.787 250.595,347.121 249,344.5C 248.832,334.151 248.332,323.817 247.5,313.5C 236.39,310.028 225.056,308.694 213.5,309.5C 223.881,311.828 234.214,313.828 244.5,315.5C 245.498,324.141 245.831,332.808 245.5,341.5C 244.833,333.167 244.167,324.833 243.5,316.5C 234.101,315.6 224.767,314.267 215.5,312.5C 215.167,327.182 215.501,341.848 216.5,356.5C 218.115,360.009 219.115,363.675 219.5,367.5C 217.777,365.747 216.277,363.747 215,361.5C 214.833,362.333 214.667,363.167 214.5,364C 216.684,368.363 218.684,372.863 220.5,377.5C 218.502,376.032 216.835,374.199 215.5,372C 214.23,367.733 212.897,363.566 211.5,359.5C 210.169,351.193 209.502,342.527 209.5,333.5C 209.667,324.833 209.833,316.167 210,307.5C 211.194,306.57 212.527,305.903 214,305.5C 224.796,307.519 235.629,309.352 246.5,311C 247.931,311.465 249.097,312.299 250,313.5C 250.333,324.167 250.667,334.833 251,345.5C 253.028,348.692 255.528,351.359 258.5,353.5 Z"/></g>
<g><path style="opacity:1" fill="#662c18" d="M 243.5,316.5 C 244.167,324.833 244.833,333.167 245.5,341.5C 245.5,343.5 245.5,345.5 245.5,347.5C 245.5,347.833 245.5,348.167 245.5,348.5C 244.732,347.737 244.232,346.737 244,345.5C 243.5,335.839 243.334,326.172 243.5,316.5 Z"/></g>
<g><path style="opacity:1" fill="#e85c31" d="M 211.5,359.5 C 210.001,342.475 210.167,325.475 212,308.5C 213.073,312.084 213.74,315.75 214,319.5C 214.833,333.179 214.666,346.846 213.5,360.5C 212.817,360.137 212.15,359.804 211.5,359.5 Z"/></g>
<g><path style="opacity:1" fill="#ec5a2b" d="M 245.5,347.5 C 245.5,345.5 245.5,343.5 245.5,341.5C 245.831,332.808 245.498,324.141 244.5,315.5C 234.214,313.828 223.881,311.828 213.5,309.5C 225.056,308.694 236.39,310.028 247.5,313.5C 248.332,323.817 248.832,334.151 249,344.5C 250.595,347.121 252.095,349.787 253.5,352.5C 252.311,353.429 250.978,353.762 249.5,353.5C 249.167,351.5 248.833,349.5 248.5,347.5C 247.5,347.5 246.5,347.5 245.5,347.5 Z"/></g>
<g><path style="opacity:1" fill="#a75a3f" d="M 360.5,351.5 C 360.119,352.931 359.119,353.764 357.5,354C 324.502,354.5 291.502,354.667 258.5,354.5C 258.5,354.167 258.5,353.833 258.5,353.5C 291.168,353.667 323.835,353.5 356.5,353C 357.745,352.209 359.078,351.709 360.5,351.5 Z"/></g>
<g><path style="opacity:1" fill="#ea5b2e" d="M 366.5,352.5 C 363.47,355.348 359.804,357.182 355.5,358C 323.162,358.833 290.828,358.667 258.5,357.5C 253.508,355.579 253.508,354.579 258.5,354.5C 291.502,354.667 324.502,354.5 357.5,354C 359.119,353.764 360.119,352.931 360.5,351.5C 362.315,350.37 364.315,349.704 366.5,349.5C 366.5,350.5 366.5,351.5 366.5,352.5 Z"/></g>
<g><path style="opacity:1" fill="#1a0000" d="M 255.5,358.5 C 289.427,359.493 323.427,359.826 357.5,359.5C 340.67,360.167 323.67,360.5 306.5,360.5C 289.153,360.5 272.153,359.833 255.5,358.5 Z"/></g>
<g><path style="opacity:1" fill="#92472e" d="M 405.5,355.5 C 405.692,359.902 404.692,363.902 402.5,367.5C 402.502,363.126 403.502,359.126 405.5,355.5 Z"/></g>
<g><path style="opacity:1" fill="#e75b30" d="M 219.5,367.5 C 219.833,367.5 220.167,367.5 220.5,367.5C 220.844,372.178 223.178,375.512 227.5,377.5C 228.5,377.833 229.167,378.5 229.5,379.5C 229.511,381.017 230.177,382.184 231.5,383C 233.76,384.788 236.093,386.288 238.5,387.5C 239.058,388.79 240.058,389.623 241.5,390C 240.833,390.167 240.167,390.333 239.5,390.5C 236.362,388.7 233.029,387.367 229.5,386.5C 225.522,384.522 222.522,381.522 220.5,377.5C 218.684,372.863 216.684,368.363 214.5,364C 214.667,363.167 214.833,362.333 215,361.5C 216.277,363.747 217.777,365.747 219.5,367.5 Z"/></g>
<g><path style="opacity:1" fill="#b45032" d="M 400.5,344.5 C 400.829,350.537 400.496,356.537 399.5,362.5C 397.226,365.582 396.56,368.915 397.5,372.5C 398.903,370.43 400.57,368.763 402.5,367.5C 401.617,371.359 399.617,374.359 396.5,376.5C 396.337,371.999 394.67,371.332 391.5,374.5C 392.48,371.884 393.98,369.551 396,367.5C 396.253,364.21 397.253,361.21 399,358.5C 399.174,353.649 399.674,348.982 400.5,344.5 Z"/></g>
<g><path style="opacity:1" fill="#8a442c" d="M 220.5,367.5 C 222.831,370.825 225.164,374.158 227.5,377.5C 223.178,375.512 220.844,372.178 220.5,367.5 Z"/></g>
<g><path style="opacity:1" fill="#864128" d="M 459.5,168.5 C 460.499,234.665 460.832,300.998 460.5,367.5C 460.428,369.311 459.595,370.644 458,371.5C 454.549,372.737 451.049,373.737 447.5,374.5C 451.368,372.804 455.201,370.804 459,368.5C 459.5,301.834 459.667,235.167 459.5,168.5 Z"/></g>
<g><path style="opacity:1" fill="#ce5a34" d="M 152.5,359.5 C 160.167,365.5 167.833,371.5 175.5,377.5C 175.5,377.833 175.5,378.167 175.5,378.5C 173.559,378.131 171.725,377.464 170,376.5C 169.833,376.833 169.667,377.167 169.5,377.5C 170.804,380.13 172.47,382.463 174.5,384.5C 165.61,378.552 157.277,371.885 149.5,364.5C 150.833,364.5 152.167,364.5 153.5,364.5C 153.371,362.784 153.038,361.117 152.5,359.5 Z"/></g>
<g><path style="opacity:1" fill="#bc5e3e" d="M 425.5,277.5 C 426.333,312.664 426.833,347.998 427,383.5C 427.804,384.804 428.971,385.471 430.5,385.5C 435.817,384.007 440.817,381.841 445.5,379C 452.821,378.105 459.155,375.272 464.5,370.5C 464.833,370.5 465.167,370.5 465.5,370.5C 465.489,372.017 464.823,373.184 463.5,374C 453.78,377.848 444.113,381.848 434.5,386C 431.331,386.978 428.497,386.478 426,384.5C 425.5,348.835 425.333,313.168 425.5,277.5 Z"/></g>
<g><path style="opacity:1" fill="#a75437" d="M 391.5,374.5 C 388.283,380.716 383.283,384.716 376.5,386.5C 377.975,384.59 379.975,383.424 382.5,383C 385.369,379.962 388.369,377.129 391.5,374.5 Z"/></g>
<g><path style="opacity:1" fill="#c16548" d="M 229.5,379.5 C 237.042,385.629 245.709,389.129 255.5,390C 290.5,390.667 325.5,390.667 360.5,390C 365.99,389.46 371.323,388.294 376.5,386.5C 374.325,389.478 371.325,390.978 367.5,391C 329.501,391.5 291.501,391.667 253.5,391.5C 250.833,391.167 248.167,390.833 245.5,390.5C 243.491,388.935 241.157,387.935 238.5,387.5C 236.093,386.288 233.76,384.788 231.5,383C 230.177,382.184 229.511,381.017 229.5,379.5 Z"/></g>
<g><path style="opacity:1" fill="#d8603a" d="M 396.5,376.5 C 394.833,378.833 393.167,381.167 391.5,383.5C 383.738,387.916 375.738,391.916 367.5,395.5C 328.529,396.649 289.529,396.815 250.5,396C 242.421,394.956 235.421,391.789 229.5,386.5C 233.029,387.367 236.362,388.7 239.5,390.5C 240.167,390.333 240.833,390.167 241.5,390C 240.058,389.623 239.058,388.79 238.5,387.5C 241.157,387.935 243.491,388.935 245.5,390.5C 243.952,390.821 243.285,391.821 243.5,393.5C 284.475,394.816 325.475,394.816 366.5,393.5C 328.669,392.833 291.002,392.167 253.5,391.5C 291.501,391.667 329.501,391.5 367.5,391C 371.325,390.978 374.325,389.478 376.5,386.5C 383.283,384.716 388.283,380.716 391.5,374.5C 394.67,371.332 396.337,371.999 396.5,376.5 Z"/></g>
<g><path style="opacity:1" fill="#f0582b" d="M 245.5,390.5 C 248.167,390.833 250.833,391.167 253.5,391.5C 291.002,392.167 328.669,392.833 366.5,393.5C 325.475,394.816 284.475,394.816 243.5,393.5C 243.285,391.821 243.952,390.821 245.5,390.5 Z"/></g>
<g><path style="opacity:1" fill="#b35a3e" d="M 391.5,383.5 C 384.848,389.955 376.848,393.955 367.5,395.5C 375.738,391.916 383.738,387.916 391.5,383.5 Z"/></g>
<g><path style="opacity:1" fill="#eaeaea" d="M 142.5,429.5 C 147.511,429.334 152.511,429.501 157.5,430C 162.738,433.274 163.904,437.774 161,443.5C 157.96,446.966 154.126,448.3 149.5,447.5C 149.5,449.833 149.5,452.167 149.5,454.5C 147.167,454.5 144.833,454.5 142.5,454.5C 142.5,446.167 142.5,437.833 142.5,429.5 Z"/></g>
<g><path style="opacity:1" fill="#f6f6f6" d="M 189.5,429.5 C 189.5,431.167 189.5,432.833 189.5,434.5C 185.5,434.5 181.5,434.5 177.5,434.5C 177.5,436.167 177.5,437.833 177.5,439.5C 181.167,439.5 184.833,439.5 188.5,439.5C 188.5,440.833 188.5,442.167 188.5,443.5C 184.833,443.5 181.167,443.5 177.5,443.5C 177.5,445.5 177.5,447.5 177.5,449.5C 181.833,449.5 186.167,449.5 190.5,449.5C 191.451,450.919 191.784,452.585 191.5,454.5C 184.833,454.5 178.167,454.5 171.5,454.5C 171.5,446.167 171.5,437.833 171.5,429.5C 177.5,429.5 183.5,429.5 189.5,429.5 Z"/></g>
<g><path style="opacity:1" fill="#f1f1f1" d="M 218.5,431.5 C 219.324,434.764 219.658,438.098 219.5,441.5C 219.1,443.377 218.1,444.877 216.5,446C 218.285,448.397 219.951,450.897 221.5,453.5C 219.235,454.647 216.902,454.814 214.5,454C 210.083,450.57 208.416,446.07 209.5,440.5C 213.138,441.263 214.638,439.93 214,436.5C 211.619,435.565 209.119,435.232 206.5,435.5C 206.5,441.833 206.5,448.167 206.5,454.5C 204.5,454.5 202.5,454.5 200.5,454.5C 200.5,446.167 200.5,437.833 200.5,429.5C 206.718,428.977 212.718,429.644 218.5,431.5 Z"/></g>
<g><path style="opacity:1" fill="#f6f6f6" d="M 248.5,429.5 C 248.5,431.167 248.5,432.833 248.5,434.5C 244.629,434.185 240.962,434.518 237.5,435.5C 236.566,436.568 236.232,437.901 236.5,439.5C 240.167,439.5 243.833,439.5 247.5,439.5C 247.5,441.167 247.5,442.833 247.5,444.5C 243.833,444.5 240.167,444.5 236.5,444.5C 236.5,447.833 236.5,451.167 236.5,454.5C 234.5,454.5 232.5,454.5 230.5,454.5C 230.5,446.167 230.5,437.833 230.5,429.5C 236.5,429.5 242.5,429.5 248.5,429.5 Z"/></g>
<g><path style="opacity:1" fill="#ebebeb" d="M 276.5,432.5 C 277.413,438.441 277.746,444.441 277.5,450.5C 271.165,457.158 264.665,457.158 258,450.5C 257.333,444.833 257.333,439.167 258,433.5C 263.878,427.268 270.045,426.935 276.5,432.5 Z"/></g>
<g><path style="opacity:1" fill="#e7e7e7" d="M 287.5,429.5 C 292.844,429.334 298.177,429.501 303.5,430C 308.45,432.84 309.784,437.007 307.5,442.5C 305.954,443.212 304.954,444.378 304.5,446C 305.953,448.405 307.287,450.905 308.5,453.5C 306.235,454.647 303.902,454.814 301.5,454C 299.156,451.144 297.489,447.977 296.5,444.5C 296.403,441.089 298.07,439.755 301.5,440.5C 301.5,438.833 301.5,437.167 301.5,435.5C 299.167,435.5 296.833,435.5 294.5,435.5C 294.5,441.833 294.5,448.167 294.5,454.5C 292.167,454.5 289.833,454.5 287.5,454.5C 287.5,446.167 287.5,437.833 287.5,429.5 Z"/></g>
<g><path style="opacity:1" fill="#f1f1f1" d="M 318.5,429.5 C 320.527,429.338 322.527,429.505 324.5,430C 326.458,432.748 328.291,435.582 330,438.5C 332.207,435.922 334.04,433.089 335.5,430C 337.473,429.505 339.473,429.338 341.5,429.5C 341.5,437.833 341.5,446.167 341.5,454.5C 339.5,454.5 337.5,454.5 335.5,454.5C 335.823,450.774 335.489,447.107 334.5,443.5C 331.444,450.104 328.278,450.104 325,443.5C 324.501,447.152 324.335,450.818 324.5,454.5C 322.5,454.5 320.5,454.5 318.5,454.5C 318.5,446.167 318.5,437.833 318.5,429.5 Z"/></g>
<g><path style="opacity:1" fill="#e9e9e9" d="M 358.5,429.5 C 361.119,429.232 363.619,429.565 366,430.5C 368.895,438.142 371.729,445.809 374.5,453.5C 372.167,454.833 369.833,454.833 367.5,453.5C 367.167,452.833 366.833,452.167 366.5,451.5C 363.572,450.516 360.572,450.183 357.5,450.5C 357.67,451.822 357.337,452.989 356.5,454C 354.527,454.495 352.527,454.662 350.5,454.5C 352.766,446.035 355.433,437.701 358.5,429.5 Z"/></g>
<g><path style="opacity:1" fill="#f3f3f3" d="M 394.5,440.5 C 394.783,441.289 395.283,441.956 396,442.5C 396.499,438.179 396.666,433.846 396.5,429.5C 398.5,429.5 400.5,429.5 402.5,429.5C 402.5,437.833 402.5,446.167 402.5,454.5C 400.473,454.662 398.473,454.495 396.5,454C 394.03,450.222 391.697,446.389 389.5,442.5C 389.44,441.957 389.107,441.624 388.5,441.5C 387.508,445.783 387.174,450.116 387.5,454.5C 385.833,454.5 384.167,454.5 382.5,454.5C 382.5,446.167 382.5,437.833 382.5,429.5C 384.527,429.338 386.527,429.505 388.5,430C 390.728,433.388 392.728,436.888 394.5,440.5 Z"/></g>
<g><path style="opacity:1" fill="#ededed" d="M 412.5,449.5 C 412.26,443.773 412.593,438.106 413.5,432.5C 419.915,426.925 426.081,427.258 432,433.5C 432.49,434.793 432.657,436.127 432.5,437.5C 430.473,437.662 428.473,437.495 426.5,437C 424.607,434.443 422.273,433.943 419.5,435.5C 418.339,439.795 418.172,444.129 419,448.5C 422.143,450.172 424.643,449.506 426.5,446.5C 433.215,445.428 434.215,447.595 429.5,453C 422.643,457.144 416.977,455.977 412.5,449.5 Z"/></g>
<g><path style="opacity:1" fill="#e9e9e9" d="M 441.5,429.5 C 447.833,429.5 454.167,429.5 460.5,429.5C 460.5,431.5 460.5,433.5 460.5,435.5C 456.5,435.5 452.5,435.5 448.5,435.5C 448.5,436.5 448.5,437.5 448.5,438.5C 451.85,438.335 455.183,438.502 458.5,439C 459.406,440.699 459.739,442.533 459.5,444.5C 455.833,444.5 452.167,444.5 448.5,444.5C 448.5,445.833 448.5,447.167 448.5,448.5C 452.514,448.334 456.514,448.501 460.5,449C 461.406,450.699 461.739,452.533 461.5,454.5C 454.833,454.5 448.167,454.5 441.5,454.5C 441.5,446.167 441.5,437.833 441.5,429.5 Z"/></g>
<g><path style="opacity:1" fill="#5c5c5c" d="M 396.5,429.5 C 396.666,433.846 396.499,438.179 396,442.5C 395.283,441.956 394.783,441.289 394.5,440.5C 395.167,436.833 395.833,433.167 396.5,429.5 Z"/></g>
<g><path style="opacity:1" fill="#b1b1b1" d="M 189.5,429.5 C 190.461,431.265 190.795,433.265 190.5,435.5C 186.5,435.5 182.5,435.5 178.5,435.5C 178.5,436.5 178.5,437.5 178.5,438.5C 182.042,438.187 185.375,438.521 188.5,439.5C 184.833,439.5 181.167,439.5 177.5,439.5C 177.5,437.833 177.5,436.167 177.5,434.5C 181.5,434.5 185.5,434.5 189.5,434.5C 189.5,432.833 189.5,431.167 189.5,429.5 Z"/></g>
<g><path style="opacity:1" fill="#959595" d="M 248.5,429.5 C 249.461,431.265 249.795,433.265 249.5,435.5C 245.5,435.5 241.5,435.5 237.5,435.5C 240.962,434.518 244.629,434.185 248.5,434.5C 248.5,432.833 248.5,431.167 248.5,429.5 Z"/></g>
<g><path style="opacity:1" fill="#161616" d="M 265.5,434.5 C 267.262,434.357 268.929,434.691 270.5,435.5C 271.8,440.05 271.8,444.55 270.5,449C 267.975,449.896 265.808,449.396 264,447.5C 262.978,442.871 263.478,438.538 265.5,434.5 Z"/></g>
<g><path style="opacity:1" fill="#101010" d="M 149.5,435.5 C 151.527,435.338 153.527,435.505 155.5,436C 156.991,438.022 156.658,439.688 154.5,441C 152.866,441.494 151.199,441.66 149.5,441.5C 149.5,439.5 149.5,437.5 149.5,435.5 Z"/></g>
<g><path style="opacity:1" fill="#a9a9a9" d="M 218.5,431.5 C 220.68,433.031 221.68,435.198 221.5,438C 221.392,439.681 220.725,440.848 219.5,441.5C 219.658,438.098 219.324,434.764 218.5,431.5 Z"/></g>
<g><path style="opacity:1" fill="#666666" d="M 237.5,435.5 C 237.5,436.5 237.5,437.5 237.5,438.5C 241.042,438.187 244.375,438.521 247.5,439.5C 243.833,439.5 240.167,439.5 236.5,439.5C 236.232,437.901 236.566,436.568 237.5,435.5 Z"/></g>
<g><path style="opacity:1" fill="#6c6c6c" d="M 413.5,432.5 C 412.593,438.106 412.26,443.773 412.5,449.5C 411.349,444.35 411.183,439.016 412,433.5C 412.383,432.944 412.883,432.611 413.5,432.5 Z"/></g>
<g><path style="opacity:1" fill="#222222" d="M 360.5,439.5 C 363.084,440.048 364.084,441.715 363.5,444.5C 362.5,444.5 361.5,444.5 360.5,444.5C 360.5,442.833 360.5,441.167 360.5,439.5 Z"/></g>
<g><path style="opacity:1" fill="#a3a3a3" d="M 276.5,432.5 C 277.117,432.611 277.617,432.944 278,433.5C 278.818,439.349 278.652,445.015 277.5,450.5C 277.746,444.441 277.413,438.441 276.5,432.5 Z"/></g>
<g><path style="opacity:1" fill="#9b9b9b" d="M 188.5,439.5 C 189.451,440.919 189.784,442.585 189.5,444.5C 185.833,444.5 182.167,444.5 178.5,444.5C 178.5,445.833 178.5,447.167 178.5,448.5C 182.702,448.183 186.702,448.517 190.5,449.5C 186.167,449.5 181.833,449.5 177.5,449.5C 177.5,447.5 177.5,445.5 177.5,443.5C 181.167,443.5 184.833,443.5 188.5,443.5C 188.5,442.167 188.5,440.833 188.5,439.5 Z"/></g>
<g><path style="opacity:1" fill="#6a6a6a" d="M 247.5,444.5 C 244.375,445.479 241.042,445.813 237.5,445.5C 237.81,448.713 237.477,451.713 236.5,454.5C 236.5,451.167 236.5,447.833 236.5,444.5C 240.167,444.5 243.833,444.5 247.5,444.5 Z"/></g>
<g><path style="opacity:1" fill="#8e8e8e" d="M 389.5,442.5 C 388.833,446.5 388.167,450.5 387.5,454.5C 387.174,450.116 387.508,445.783 388.5,441.5C 389.107,441.624 389.44,441.957 389.5,442.5 Z"/></g>
</svg>
